<svg xmlns="http://www.w3.org/2000/svg" xmlns:xlink="http://www.w3.org/1999/xlink" id="Layer_1" x="0" y="0" version="1.1" viewBox="0 0 1653.8 1719.8" xml:space="preserve" style="enable-background:new 0 0 1653.8 1719.8"><style type="text/css">.st3{fill:#fa7554}.st5{fill:#871fff}.st6{fill:#b3ddf9}.st7{fill:#ffb8a3}.st10{fill:url(#SVGID_1_)}.st14{fill:#fcac98}.st16{fill:#cfa5ff}.st17{fill:#fdc8bb}.st18{fill:#fb9176}</style><g><g><path d="M1510.6,701l-10.9-52.6l72.2-22.4l-9.5-46l-75.1,8.2l-11.3-54.3l-231.6,8.5l50.7,244.5l215.9-84.3 L1510.6,701L1510.6,701z M1309.5,588.6l72,16.3l-59.6,43.6L1309.5,588.6z M1339.1,650.3l57.5-42L1466,624l-57.5,42L1339.1,650.3z M1396.1,675.1l-59.6,43.6l-12.4-59.9L1396.1,675.1z M1468.6,555.6l12.4,59.9l-72-16.3L1468.6,555.6z M1483.1,625.8l12.4,59.9 l-72-16.3L1483.1,625.8z M1553.1,592.7l5.3,25.4l-54.9,17l-7.5-36.1L1553.1,592.7z M1303.6,771.1l-45.1-217.6L1462,546l-68.1,49.8 l-99.5-22.5l34.3,165.3l82.3-60.2l82.3,18.6L1303.6,771.1z" class="st14"/><g><path d="M1562.9,583l8.3,40c11-2.3,18.1-13.1,15.8-24.1C1584.8,587.8,1574,580.7,1562.9,583z" class="st5"/></g><g><rect width="11.6" height="91.1" x="1555.4" y="558.7" class="st3" transform="matrix(0.9792 -0.203 0.203 0.9792 -90.1669 329.5903)"/></g><g><g><path d="M1628.2,664.5l-8.2-8.2c18.1-18,25.8-43.6,20.6-68.5c-5.2-24.9-22.4-45.3-46.2-54.6l4.2-10.8 c27.4,10.8,47.3,34.3,53.3,63.1C1658,614.2,1649,643.7,1628.2,664.5z" class="st3"/></g><g><path d="M1628.2,664.5l-8.2-8.2c18.1-18,25.8-43.6,20.6-68.5c-5.2-24.9-22.4-45.3-46.2-54.6l4.2-10.8 c27.4,10.8,47.3,34.3,53.3,63.1C1658,614.2,1649,643.7,1628.2,664.5z" class="st3"/></g><g><path d="M1601.2,633.8l-8.6-7.8c7.4-8.3,10.4-19.2,8.2-30c-2.2-10.8-9.3-19.6-19.4-24.3l4.8-10.5 c13.3,6.1,23,18.2,25.9,32.5S1611,622.9,1601.2,633.8z" class="st3"/></g><g><path d="M1601.2,633.8l-8.6-7.8c7.4-8.3,10.4-19.2,8.2-30c-2.2-10.8-9.3-19.6-19.4-24.3l4.8-10.5 c13.3,6.1,23,18.2,25.9,32.5S1611,622.9,1601.2,633.8z" class="st3"/></g></g></g><rect width="902.4" height="11.6" x="-111" y="1369.6" class="st3" transform="matrix(0.702 -0.7121 0.7121 0.702 -878.1489 652.0588)"/><g><rect width="30.2" height="65.7" x="18.9" y="1653.1" class="st5" transform="matrix(0.7021 -0.7121 0.7121 0.7021 -1190.4731 526.5406)"/></g><g><rect width="31.7" height="138.6" x="832.2" y="1003.4" class="st5" transform="matrix(0.9792 -0.203 0.203 0.9792 -200.1281 194.5246)"/></g><g><rect width="94" height="507.5" x="582.8" y="546.8" class="st3" transform="matrix(0.9792 -0.203 0.203 0.9792 -149.4318 144.5568)"/></g><g><rect width="92.8" height="39.5" x="600.8" y="395.1" class="st5" transform="matrix(0.9847 0.1745 -0.1745 0.9847 82.3194 -106.5744)"/></g><g><polygon points="757.7 435.8 726.9 442.2 703.6 329.8 739.5 348.4" class="st3"/></g><g><linearGradient id="SVGID_1_" x1="1203.829" x2="1203.829" y1="212.03" y2="1104.084" gradientUnits="userSpaceOnUse"><stop offset=".164" style="stop-color:#ffa68c"/><stop offset=".414" style="stop-color:#ffa389"/><stop offset=".621" style="stop-color:#fe9a7f"/><stop offset=".81" style="stop-color:#fc8b6d"/><stop offset=".991" style="stop-color:#fa7655"/><stop offset="1" style="stop-color:#fa7554"/></linearGradient><path d="M1184.2,212c-125.8,121.8-188.2,307.3-149,496.1c39.2,188.9,170.2,334.2,334,395.9 c23.4-130.3,20.3-292-15-462.1S1257.4,322.3,1184.2,212z" class="st10"/></g><path d="M732.6,1043.9l-23.6-113.6h0l-9.9-47.6l-20.1-96.8l0,0L651,650.2l0,0l-23.6-113.6l-308,63.9l230.3,123.7 L372,854.1l214.7,48.5l-162.1,205.1L732.6,1043.9z M694.1,915l-86.8-19.6l65.5-82.9L694.1,915z M664.6,772.7l-93.1-50l71.8-52.5 L664.6,772.7z M353,605.3l265.4-55l22.3,107.4l-80.6,58.9L353,605.3z M399.5,848.4l161.6-118.2l106.5,57.2l2.1,10.2l-75,94.9 L399.5,848.4z M696.7,927.5l22.3,107.4l-265.4,55l145.8-184.4L696.7,927.5z" class="st5"/><path d="M951.3,488.5L843,511l94.2,454.5l108.3-22.5L951.3,488.5z M944.5,512.7l22.4,107.9l-88.3-37.9L944.5,512.7z M969.8,634.4l3.3,15.9l-73.2,77.6l-28.1-135.6L969.8,634.4z M998.3,772L910,734.1l66-69.9L998.3,772z M1001.2,785.9l3.3,15.9 l-73.2,77.6l-28.1-135.6L1001.2,785.9z M1007.3,815.6l15.9,76.9l6.4,31l-88.3-37.9L1007.3,815.6z M937.5,503.2l-69,73.2L856.7,520 L937.5,503.2z M946.3,951.7l-11.7-56.4L1027,935L946.3,951.7z" class="st5"/><g><rect width="216.3" height="615.5" x="678.7" y="465" class="st16" transform="matrix(0.9792 -0.203 0.203 0.9792 -140.4997 175.858)"/></g><g><rect width="216.3" height="90.9" x="619.8" y="443" class="st17" transform="matrix(0.9792 -0.203 0.203 0.9792 -84.0073 157.9678)"/></g><g><rect width="216.3" height="374.6" x="667" y="529" class="st18" transform="matrix(0.9792 -0.203 0.203 0.9792 -129.2984 172.3107)"/></g><g><rect width="216.3" height="180.4" x="723.4" y="897.9" class="st3" transform="matrix(0.9792 -0.203 0.203 0.9792 -183.2972 189.4112)"/></g><g><circle cx="770.8" cy="714" r="67.6" class="st7"/></g><g><circle cx="770.8" cy="714" r="29.5"/></g><g><circle cx="770.8" cy="714" r="20.8" class="st3"/></g><g><path d="M770.7,753.2c-7.6,0-15-2.2-21.4-6.4c-8.8-5.7-14.7-14.6-16.9-24.8l3.8-0.8c1.9,9.2,7.3,17.2,15.2,22.4 c7.9,5.2,17.3,7,26.6,5.1l0.8,3.8C776.1,752.9,773.4,753.2,770.7,753.2z" class="st3"/></g><g><path d="M805.4,706.8c-1.9-9.2-7.3-17.2-15.2-22.4c-7.9-5.2-17.3-7-26.6-5.1l-0.8-3.8c21.2-4.4,41.9,9.3,46.3,30.4 L805.4,706.8z" class="st3"/></g><g><path d="M770.8,763c-22.7,0-43.1-15.9-47.9-39l3.8-0.8c5,24.3,29,40,53.3,35l0.8,3.8C777.4,762.6,774.1,763,770.8,763 z" class="st3"/></g><g><path d="M815,704.9c-5-24.3-29-40-53.3-35l-0.8-3.8c26.4-5.5,52.4,11.6,57.9,38L815,704.9z" class="st3"/></g><g><path d="M770.7,772.9c-11.4,0-22.5-3.3-32.2-9.7c-13.2-8.6-22.2-21.9-25.4-37.3l3.8-0.8c3,14.4,11.4,26.8,23.7,34.8 c12.3,8.1,27,10.9,41.4,7.9l0.8,3.8C778.8,772.5,774.7,772.9,770.7,772.9z" class="st3"/></g><g><path d="M824.7,702.8c-3-14.4-11.4-26.8-23.7-34.8c-12.3-8.1-27-10.9-41.4-7.9l-0.8-3.8c15.4-3.2,31.1-0.2,44.3,8.4 c13.2,8.6,22.2,21.9,25.4,37.3L824.7,702.8z" class="st3"/></g><g><rect width="11.6" height="73.7" x="422.2" y="1064.8" class="st3" transform="matrix(0.9792 -0.203 0.203 0.9792 -214.7582 109.8486)"/></g><g><rect width="11.6" height="73.7" x="370.7" y="816.3" class="st3" transform="matrix(0.9792 -0.203 0.203 0.9792 -165.3919 94.2149)"/></g><g><rect width="11.6" height="73.7" x="320.1" y="572.2" class="st3" transform="matrix(0.9792 -0.203 0.203 0.9792 -116.8805 78.8521)"/></g><path d="M305.3,0l-45.9,79.3l561.7,325.4l45.9-79.3L305.3,0z M799.1,299.4l45,26.1l-35.5,9.5L799.1,299.4z M797.3,337.9l-43.5,11.6l-11.6-43.5l43.5-11.6L797.3,337.9z M739.3,294.8l-9.5-35.5l45,26.1L739.3,294.8z M728.1,297.8l-42.6,11.3 l-11.3-42.6l42.6-11.3L728.1,297.8z M671.2,255.4l-9.5-35.5l45,26.1L671.2,255.4z M660,258.4l-43.5,11.6l-11.6-43.5l43.5-11.6 L660,258.4z M602,215.3l-9.5-35.5l45,26.1L602,215.3z M590.7,218.3l-43.5,11.6l-11.6-43.5l43.5-11.6L590.7,218.3z M532.7,175.2 l-9.5-35.5l45,26.1L532.7,175.2z M521.5,178.2l-43.5,11.6l-11.6-43.5l43.5-11.6L521.5,178.2z M463.5,135.1L454,99.5l45,26.1 L463.5,135.1z M452.3,138.1l-42.6,11.3l-11.3-42.6l42.6-11.3L452.3,138.1z M395.4,95.6l-9.5-35.5l45,26.1L395.4,95.6z M384.1,98.6 l-43.5,11.6l-11.6-43.5l43.5-11.6L384.1,98.6z M326.1,55.5L316.7,20l45,26.1L326.1,55.5z M314.9,58.5l-35.5,9.5l26.1-45L314.9,58.5 z M317.9,69.7l9.5,35.5l-45-26.1L317.9,69.7z M387.1,109.8l9.5,35.5l-45-26.1L387.1,109.8z M455.3,149.3l9.5,35.5l-45-26.1 L455.3,149.3z M524.5,189.4l9.5,35.5l-45-26.1L524.5,189.4z M593.7,229.5l9.5,35.5l-45-26.1L593.7,229.5z M663,269.6l9.5,35.5 l-45-26.1L663,269.6z M731.1,309l9.5,35.5l-45-26.1L731.1,309z M800.3,349.1l9.5,35.5l-45-26.1L800.3,349.1z M811.5,346.2l35.5-9.5 l-26.1,45L811.5,346.2z" class="st14"/><g><path d="M681,451.8l-33.8,7l-6-28.7c-1.9-9.3,4.1-18.4,13.4-20.4h0c9.3-1.9,18.4,4.1,20.4,13.4L681,451.8z" class="st3"/></g><g><circle cx="658.4" cy="427.7" r="5.7" class="st5"/></g><g><rect width="135.1" height="38.4" x="376.8" y="535.8" class="st17" transform="matrix(0.9792 -0.203 0.203 0.9792 -103.4204 101.7794)"/></g><g><circle cx="397" cy="565.5" r="6.2" class="st3"/></g><g><circle cx="491.4" cy="545.9" r="6.2" class="st3"/></g><g><g><path d="M855.5,1109c-27.4,5.7-46.6,24.6-43,42.3c0.1,0.4,0.2,0.8,0.4,1.2l107.9,520.5l99.1-20.6l-108.2-521.8 C908.1,1113.1,882.9,1103.3,855.5,1109z" class="st17"/></g><g><ellipse cx="970.4" cy="1662.8" class="st5" rx="50.7" ry="32.7" transform="matrix(0.9792 -0.203 0.203 0.9792 -317.4079 231.6719)"/></g><g><path d="M877.1,1212.9c-1.2,0.2-2.3,0.5-3.4,0.8l45,216.9c1.2-0.3,2.3-0.6,3.5-0.8c27.1-5.6,52,3.8,56.1,21.1 l-44.8-216.3C929.7,1216.9,904.5,1207.2,877.1,1212.9z" class="st18"/></g><g><circle cx="927.3" cy="1415.8" r="3.8" class="st3"/></g><g><circle cx="887.8" cy="1225.3" r="3.8" class="st3"/></g></g><g><g><polygon points="1031.9 500.3 1031.9 500.3 1031.9 500.3" class="st6"/></g><g><polygon points="1025.9 545.5 1025.9 545.5 1025.9 545.5" class="st6"/></g></g><g><rect width="89.5" height="464.1" x="996.5" y="474.8" class="st3" transform="matrix(0.9792 -0.203 0.203 0.9792 -121.8325 226.1406)"/></g></g></svg>