<svg xmlns="http://www.w3.org/2000/svg" xmlns:xlink="http://www.w3.org/1999/xlink" id="Layer_1" x="0" y="0" version="1.1" viewBox="0 0 1094.5 1964.2" xml:space="preserve" style="enable-background:new 0 0 1094.5 1964.2"><style type="text/css">.st0{fill:#fff}.st1{fill:#80c7f5}.st2{fill:#d7219c}.st3{fill:#fa7554}.st4{fill:#ffa68c}.st5{fill:#871fff}.st6{fill:#b3ddf9}</style><g><path d="M929.2,886.2C910,414.4,835,251.7,685.1,214.7c-117.4-29-169.7,82.4-169.7,82.4v0 c-30.2,73.4-95.4,166.8-146.7,232.4L493,608.5l-99,277.8H929.2z" class="st0"/><ellipse cx="544.8" cy="106.6" class="st1" rx="11.3" ry="29.3"/><path d="M639.8,192c-19.7-0.8-39.2-7.8-55.5-21.4c-39-32.7-44.2-90.8-11.6-129.8c7.1-8.5,15.4-15.3,24.4-20.6 c3.3,3.6,46.6,25.6,50.2,29L639.8,192"/><g><rect width="77.7" height="9.9" x="538.5" y="99.9" class="st1"/></g><path d="M733,78.3c-4.5-18.5-14.3-36.3-30.4-49c-25.4-20.1-58.6-25.8-83.4-18.2c-7.6,2.3-15,5.1-22,9.2 c4.6,7.8,20.5,20.2,27.2,22.8c-23.1,49.5-27.3,101.1,15.4,149c27.5,1.1,55.3-10.2,74.3-32.9C733.6,135.8,739.6,105.7,733,78.3z" class="st2"/><ellipse cx="647.6" cy="71.5" class="st3" rx="33" ry="165.2" transform="matrix(0.305 -0.9524 0.9524 0.305 381.9356 666.4373)"/><path d="M584.9,27.5c-7.5,6.2-14.1,13.6-19.3,21.8c22.4,11.3,49.4,22.3,78.9,31.8c32.9,10.5,64.3,17.6,91,21.2 c0-1.2,0.1-2.4,0.1-3.6c0-8.4-1.1-16.5-3.2-24.2c-23.2-3.9-49.1-10.3-76.1-18.9C630,47.1,605.7,37.5,584.9,27.5z" class="st4"/><path d="M1089,713.1l-65.7-40.4c-5.5-3.4-12.6-1.7-16,3.8l-6.1,10l-13-8c-9.5-5.9-22-2.9-27.9,6.7L943,713.2 c-5.9,9.5-2.9,22,6.6,27.9l13,8l-6.5,10.5c-3.4,5.5-1.7,12.7,3.8,16l65.7,40.4c5.5,3.4,12.7,1.7,16-3.8l51.2-83.1 C1096.2,723.6,1094.5,716.4,1089,713.1z M957.5,728.5c-2.5-1.6-3.3-4.9-1.8-7.5l17.3-28.1c1.6-2.6,4.9-3.3,7.5-1.8l13,8l-23,37.3 L957.5,728.5z" class="st2"/><path d="M384.4,923.6h0.3L121,1831.7H66.7c-36.6,0-66.2,29.7-66.2,66.2s29.7,66.2,66.2,66.2h15.8h319.3H419L612.7,1297 l16.4,534.7h-29.6c-36.6,0-66.2,29.7-66.2,66.2s29.7,66.2,66.2,66.2h33.7h323.6h6l-32-1040.6h-0.3c-0.4-12.7-0.9-25.1-1.4-37.4H394 L384.4,923.6z" class="st4"/><path d="M702.2,219.6c0,0,48.3,15.2,56.3,51.4h27.4c0,0-4.3-23.4-31.7-41.4c-10.6-6.9-25-10.3-37.6-10.2L702.2,219.6z" class="st5"/><path d="M587.9,223.6l-4.6,0.1c-11.1,0.1-21.2,6.6-25.9,16.7l-2.9,6.2l0.1,0c2.7-2.4,5.6-4.8,8.6-7.2 c8.9-6.9,21.2-7.2,30.4-0.5c11.3,8.3,22.4,20.2,26,36.3h25.8c0,0-1.6-27.9-33-45.6C603.7,224.7,592.7,223.6,587.9,223.6z" class="st5"/><polygon points="875.9 1104.5 803.3 1146.7 730.8 1104.5 730.8 970.2 875.9 970.2" class="st0"/><path d="M666.2,549c-65.4,9.5-104.1-5.8-126.9-25.1c-3.9,9.8-7.8,19.6-11.5,28.5c22.3,16.5,54.4,29.2,100.4,29.2 c12.9,0,27-1,42.2-3.2L666.2,549z" class="st5"/><circle cx="675.8" cy="430.7" r="5.1" class="st5"/><circle cx="689.4" cy="464" r="5.1" class="st5"/><circle cx="702.6" cy="497.3" r="5.1" class="st5"/><circle cx="850.8" cy="427.5" r="5.1" class="st5"/><circle cx="864.4" cy="460.7" r="5.1" class="st5"/><circle cx="877.7" cy="494" r="5.1" class="st5"/><path d="M443.9,1044.4L51.4,837c-19.9-10.5-27.5-35.2-17-55.1L162,540.4c10.5-19.9,35.2-27.5,55.1-17l392.5,207.4 c19.9,10.5,27.5,35.2,17,55.1l-127.7,241.5C488.4,1047.3,463.8,1054.9,443.9,1044.4z" class="st5"/><path d="M416,1029.7L23.5,822.2C3.6,811.7-4,787.1,6.5,767.2l127.7-241.5c10.5-19.9,35.2-27.5,55.1-17l392.5,207.4 c19.9,10.5,27.5,35.2,17,55.1l-127.7,241.5C460.6,1032.6,435.9,1040.2,416,1029.7z" class="st6"/><polygon points="542.8 734.2 542.5 758.9 562.8 773.1 539.2 780.5 532 804.2 517.6 784.1 492.9 784.5 507.6 764.6 499.5 741.2 523 749" class="st2"/><rect width="145.3" height="54.7" x="52.6" y="756.5" class="st3" transform="matrix(-0.9885 -0.1514 0.1514 -0.9885 130.3343 1577.7422)"/><g><g><circle cx="188.8" cy="595.6" r="36.8" class="st0"/></g><g><path d="M188.7,619.8c-3.9,0-7.7-0.9-11.2-2.8c-5.7-3-9.9-8.1-11.8-14.2c-1.9-6.2-1.3-12.7,1.7-18.4l4.4,2.3 c-2.4,4.5-2.9,9.7-1.4,14.6c1.5,4.9,4.8,8.9,9.4,11.3c4.5,2.4,9.7,2.9,14.6,1.4c4.9-1.5,8.9-4.8,11.3-9.4l4.4,2.3 c-3,5.7-8.1,9.9-14.2,11.8C193.5,619.4,191.1,619.8,188.7,619.8z" class="st5"/></g><g><g><ellipse cx="184.9" cy="583.2" class="st5" rx="9.2" ry="4.4" transform="matrix(0.4673 -0.8841 0.8841 0.4673 -417.0812 474.146)"/></g><g><ellipse cx="201.2" cy="591.8" class="st5" rx="9.2" ry="4.4" transform="matrix(0.4673 -0.8841 0.8841 0.4673 -416.0129 493.1715)"/></g></g></g><g><path d="M50.2,835.4c-27.1,20-46,51-49.6,87.2c-6.8,67.9,42.9,128.5,110.8,135.3c27.2,2.7,53.2-3.6,75-16.5 C336.7,964.5,434.6,771.2,493,608.5l-124.3-78.9C238.1,696.9,82.1,810.5,50.2,835.4z"/></g><path d="M972.4,627.6L972.4,627.6c-3.5-101.2-61.3-203.2-129.7-289.4H519.6c58.4,131.2,93.6,268.6,103.9,311.6 c0.7,4.6,1.8,9.2,3.2,13.7c0,0,0,0,0,0l0,0c7.1,23,22.4,43.6,44.7,57.2c16.1,9.7,33.7,14.5,51.1,14.8v0h152.5l27,0 c33.2-0.5,38.2-17.3,56.5-47.5C970,669.2,974.4,648.1,972.4,627.6z" class="st1"/><g><path d="M881.9,271.2L881.9,271.2L881.9,271.2H574c-32.7,2.8-58.3,30.1-58.3,63.5s25.6,60.7,58.3,63.5h307.9l0,0h0 c35.1,0,63.5-28.4,63.5-63.5C945.4,299.7,917,271.2,881.9,271.2z" class="st2"/><path d="M686.8,398.6L686.8,398.6c45.9-30.1,45.9-97.4,0-127.6c-10.9,0-21.8,0-32.6,0c45.9,30.1,45.9,97.4,0,127.6 l50.1,111h32.7L686.8,398.6z" class="st0"/><path d="M853.6,398.6L853.6,398.6c45.9-30.1,45.9-97.4,0-127.6c-10.9,0-21.8,0-32.6,0c45.9,30.1,45.9,97.4,0,127.6 l50.1,111h32.7L853.6,398.6z" class="st0"/></g><circle cx="579.5" cy="334.8" r="39.2" class="st1"/><circle cx="682.2" cy="421" r="5.1" class="st5"/><circle cx="696.1" cy="454.5" r="5.1" class="st5"/><circle cx="711.2" cy="487.9" r="5.1" class="st5"/><circle cx="848.2" cy="421" r="5.1" class="st5"/><circle cx="862.3" cy="454.5" r="5.1" class="st5"/><circle cx="878" cy="487.9" r="5.1" class="st5"/><g><g><path d="M928.9,721.8c-7,0-13.4-4.8-15.2-11.9l-5.4-21.3c-1-4.1-0.4-8.3,1.7-11.9c2.2-3.6,5.6-6.1,9.6-7.2 c8.4-2.1,16.9,3,19.1,11.4l5.4,21.3c1,4.1,0.4,8.3-1.7,11.9c-2.2,3.6-5.6,6.1-9.6,7.2C931.4,721.6,930.1,721.8,928.9,721.8z M923.5,674c-0.9,0-1.8,0.1-2.6,0.3c-2.8,0.7-5.1,2.4-6.6,4.9c-1.5,2.5-1.9,5.4-1.2,8.1l5.4,21.3c1.4,5.7,7.3,9.3,13,7.8 c2.8-0.7,5.1-2.4,6.6-4.9c1.5-2.5,1.9-5.4,1.2-8.1l-5.4-21.3c-0.7-2.8-2.4-5.1-4.9-6.6C927.3,674.5,925.4,674,923.5,674z" class="st0"/></g><path d="M1016.9,973.1l-39,9.8c-12.8,3.2-25.7-4.5-28.9-17.3l-51.3-203.7c-2.3-8.9,0.9-18.4,8-24.2l17.2-14.1 c5.5-4.5,12.7-6.3,19.7-5l21.8,4.3c9,1.8,16.2,8.6,18.5,17.5l51.3,203.7C1037.4,956.9,1029.7,969.9,1016.9,973.1z" class="st3"/><path d="M953.3,720.7l-39.5,9.9c-1.3,0.3-2.6-0.5-3-1.8l-5.1-20.1c-0.3-1.3,0.5-2.6,1.8-3l39.5-9.9 c1.3-0.3,2.6,0.5,3,1.8l5.1,20.1C955.4,719,954.6,720.3,953.3,720.7z" class="st5"/></g><path d="M677.8,13.2l1.1-4c1.1-3.9-1.2-7.9-5.1-8.9c-3.9-1.1-7.9,1.2-8.9,5.1l-1,3.5c-6.6-1.5-13.5-2.4-20.5-2.4 c-22.2,0-42.6,7.9-58.5,21c20.8,10,45.1,19.7,71.4,28.1c26.9,8.6,52.9,15,76.1,18.9C724.8,46.5,704.3,23.9,677.8,13.2z" class="st3"/></g></svg>