<svg xmlns="http://www.w3.org/2000/svg" xmlns:xlink="http://www.w3.org/1999/xlink" id="Layer_1" x="0" y="0" version="1.1" viewBox="0 0 1088.7 1658.7" xml:space="preserve" style="enable-background:new 0 0 1088.7 1658.7"><style type="text/css">.st1{fill:#80c7f5}.st2{fill:#d7219c}.st5{fill:#871fff}.st6{fill:#b3ddf9}.st12{fill:#e6f4fd}</style><g><g><ellipse cx="544.3" cy="1577.5" class="st12" rx="544.3" ry="81.2"/></g><polygon points="549.4 409.3 506.3 409.3 506.3 395.3 488.5 395.3 488.5 441.3 506.3 441.3 506.3 427.2 549.4 427.2" class="st5"/><g><polygon points="842.9 347.4 729 313.4 739.1 279.6 503.9 209.2 519.2 158.2 162.5 51.5 86.7 304.9 443.4 411.6 458.7 360.6 693.8 430.9 703.9 397.1 817.8 431.2" class="st1"/><g><rect width="91.2" height="336.7" x="58" y="6" class="st1" transform="matrix(0.9581 0.2866 -0.2866 0.9581 54.3165 -22.3814)"/></g><g><rect width="42.3" height="110.4" x="829.4" y="340.2" class="st5" transform="matrix(-0.9581 -0.2866 0.2866 -0.9581 1552.2131 1017.9792)"/></g><g><g><rect width="91.2" height="17.6" x="96.1" y="38.4" class="st6" transform="matrix(0.9581 0.2866 -0.2866 0.9581 19.4706 -38.6163)"/></g><g><rect width="91.2" height="17.6" x="83.4" y="80.8" class="st6" transform="matrix(0.9581 0.2866 -0.2866 0.9581 31.0859 -33.2046)"/></g><g><rect width="91.2" height="17.6" x="70.7" y="123.2" class="st6" transform="matrix(0.9581 0.2866 -0.2866 0.9581 42.7012 -27.793)"/></g><g><rect width="91.2" height="17.6" x="58" y="165.6" class="st6" transform="matrix(0.9581 0.2866 -0.2866 0.9581 54.3165 -22.3814)"/></g><g><rect width="91.2" height="17.6" x="45.3" y="208" class="st6" transform="matrix(0.9581 0.2866 -0.2866 0.9581 65.9318 -16.9698)"/></g><g><rect width="91.2" height="17.6" x="32.7" y="250.3" class="st6" transform="matrix(0.9581 0.2866 -0.2866 0.9581 77.5471 -11.5581)"/></g><g><rect width="91.2" height="17.6" x="20" y="292.7" class="st6" transform="matrix(0.9581 0.2866 -0.2866 0.9581 89.1623 -6.1465)"/></g></g><g><polygon points="161.1 327.2 110.1 311.9 185.9 58.5 199.7 62.6" class="st5"/></g><g><polygon points="495.1 371.5 458.7 360.6 503.9 209.2 518.3 213.5" class="st5"/></g><g><polygon points="726.3 403.8 703.9 397.1 729 313.4 740.2 316.7" class="st5"/></g><g><rect width="172.7" height="140.6" x="256" y="218.9" class="st6" transform="matrix(-0.9581 -0.2866 0.2866 -0.9581 587.4316 664.4211)"/></g><g><circle cx="290.6" cy="221.1" r="8.2" class="st1"/></g><g><circle cx="423.4" cy="260.9" r="8.2" class="st1"/></g><g><circle cx="261.3" cy="319.3" r="8.2" class="st1"/></g><g><circle cx="394.1" cy="359" r="8.2" class="st1"/></g></g><g><g><rect width="16.3" height="1074.2" x="551.2" y="493.3" class="st1"/></g><g><rect width="1074.2" height="16.3" x="-197.6" y="1055.8" class="st1" transform="matrix(0.3479 -0.9375 0.9375 0.3479 -776.1259 1012.1094)"/></g><g><rect width="16.3" height="1074.2" x="771.1" y="526.9" class="st1" transform="matrix(0.9375 -0.348 0.348 0.9375 -321.5383 337.6767)"/></g></g><polygon points="672.9 496.5 672.9 510.6 652.1 510.6 652.1 451.7 466.7 451.7 466.7 587.3 652.1 587.3 652.1 528.4 672.9 528.4 672.9 542.5 690.7 542.5 690.7 496.5" class="st5"/><g><path d="M562.4,533L562.4,533c-21.9,0-39.7-17.8-39.7-39.7V361.1c0-21.9,17.8-39.7,39.7-39.7h0 c21.9,0,39.7,17.8,39.7,39.7v132.2C602.1,515.2,584.4,533,562.4,533z" class="st6"/></g><g><circle cx="562.3" cy="493.5" r="12.9" class="st5"/></g><g><circle cx="562.3" cy="362.4" r="12.9" class="st5"/></g><g><rect width="28.6" height="44.2" x="545.1" y="1545.4"/></g><g><polygon points="593.5 1120.7 593.5 1130.1 573.7 1130.1 573.7 1114 545.1 1114 545.1 1158.2 573.7 1158.2 573.7 1142.1 593.5 1142.1 593.5 1151.5 605.4 1151.5 605.4 1120.7" class="st2"/></g><g><rect width="50.6" height="28.6" x="135.4" y="1531.4" transform="matrix(0.3479 -0.9375 0.9375 0.3479 -1344.369 1158.561)"/></g><g><line x1="329.8" x2="312.1" y1="1090.2" y2="1137.7" class="st5"/><rect width="50.6" height="28.6" x="295.6" y="1099.7" class="st2" transform="matrix(0.3479 -0.9375 0.9375 0.3479 -835.0752 1027.27)"/></g><g><rect width="28.6" height="50.6" x="943.8" y="1520.4" transform="matrix(0.9375 -0.348 0.348 0.9375 -477.9955 430.0009)"/></g><g><line x1="789" x2="806.7" y1="1090.2" y2="1137.7" class="st5"/><rect width="28.6" height="50.6" x="783.6" y="1088.6" class="st2" transform="matrix(0.9375 -0.348 0.348 0.9375 -337.7805 347.2708)"/></g></g></svg>